HIERARCHY
ROOT mixamorig:Hips
{
	OFFSET 0.000000 201.639420 0.000000
	CHANNELS 6 Xposition Yposition Zposition Xrotation Yrotation Zrotation
	JOINT mixamorig:Spine
	{
		OFFSET 0.006200 19.524994 -2.481800
		CHANNELS 3 Xrotation Yrotation Zrotation
		JOINT mixamorig:Spine1
		{
			OFFSET -0.000900 22.835007 -2.825400
			CHANNELS 3 Xrotation Yrotation Zrotation
			JOINT mixamorig:Spine2
			{
				OFFSET -0.020600 26.552490 -3.193300
				CHANNELS 3 Xrotation Yrotation Zrotation
				JOINT mixamorig:Neck
				{
					OFFSET -0.060000 30.701813 1.352200
					CHANNELS 3 Xrotation Yrotation Zrotation
					JOINT mixamorig:Head
					{
						OFFSET -0.087200 22.547607 3.670900
						CHANNELS 3 Xrotation Yrotation Zrotation
						JOINT mixamorig:HeadTop_End
						{
							OFFSET -0.830600 40.355194 7.893500
							CHANNELS 3 Xrotation Yrotation Zrotation
							End Site
							{
								OFFSET 0.000000 30.592346 0.000000
							}
						}
						JOINT mixamorig:RightEye
						{
							OFFSET -6.302100 18.118591 16.197100
							CHANNELS 3 Xrotation Yrotation Zrotation
							End Site
							{
								OFFSET 0.000000 30.592346 0.000000
							}
						}
						JOINT mixamorig:LeftEye
						{
							OFFSET 6.741500 18.382690 16.401899
							CHANNELS 3 Xrotation Yrotation Zrotation
							End Site
							{
								OFFSET 0.000000 30.592346 0.000000
							}
						}
					}
				}
				JOINT mixamorig:LeftShoulder
				{
					OFFSET 11.924900 18.230499 1.425400
					CHANNELS 3 Xrotation Yrotation Zrotation
					JOINT mixamorig:LeftArm
					{
						OFFSET 25.435989 -0.697632 -5.229300
						CHANNELS 3 Xrotation Yrotation Zrotation
						JOINT mixamorig:LeftForeArm
						{
							OFFSET 54.684776 0.000000 0.000000
							CHANNELS 3 Xrotation Yrotation Zrotation
							JOINT mixamorig:LeftHand
							{
								OFFSET 55.098175 0.000000 0.000000
								CHANNELS 3 Xrotation Yrotation Zrotation
								JOINT mixamorig:LeftHandMiddle1
								{
									OFFSET 23.369751 0.000000 0.000000
									CHANNELS 3 Xrotation Yrotation Zrotation
									JOINT mixamorig:LeftHandMiddle2
									{
										OFFSET 6.378677 0.000000 0.000000
										CHANNELS 3 Xrotation Yrotation Zrotation
										JOINT mixamorig:LeftHandMiddle3
										{
											OFFSET 6.148331 0.000000 0.000000
											CHANNELS 3 Xrotation Yrotation Zrotation
											JOINT mixamorig:LeftHandMiddle4
											{
												OFFSET 6.582504 0.000000 0.000000
												CHANNELS 3 Xrotation Yrotation Zrotation
												End Site
												{
													OFFSET -1.168900 6.395691 1.028606
												}
											}
										}
									}
								}
								JOINT mixamorig:LeftHandThumb1
								{
									OFFSET 7.235672 -3.848206 5.434273
									CHANNELS 3 Xrotation Yrotation Zrotation
									JOINT mixamorig:LeftHandThumb2
									{
										OFFSET 6.568451 -3.792297 3.792300
										CHANNELS 3 Xrotation Yrotation Zrotation
										JOINT mixamorig:LeftHandThumb3
										{
											OFFSET 6.063080 -3.500519 3.500518
											CHANNELS 3 Xrotation Yrotation Zrotation
											JOINT mixamorig:LeftHandThumb4
											{
												OFFSET 4.793182 -2.767334 2.767349
												CHANNELS 3 Xrotation Yrotation Zrotation
												End Site
												{
													OFFSET 0.101639 6.054260 1.275483
												}
											}
										}
									}
								}
								JOINT mixamorig:LeftHandIndex1
								{
									OFFSET 23.101074 -0.309540 4.992809
									CHANNELS 3 Xrotation Yrotation Zrotation
									JOINT mixamorig:LeftHandIndex2
									{
										OFFSET 6.226883 0.000000 0.000000
										CHANNELS 3 Xrotation Yrotation Zrotation
										JOINT mixamorig:LeftHandIndex3
										{
											OFFSET 6.094330 0.000000 0.000000
											CHANNELS 3 Xrotation Yrotation Zrotation
											JOINT mixamorig:LeftHandIndex4
											{
												OFFSET 5.482605 0.000000 0.000000
												CHANNELS 3 Xrotation Yrotation Zrotation
												End Site
												{
													OFFSET -1.427902 5.233032 0.797164
												}
											}
										}
									}
								}
								JOINT mixamorig:LeftHandRing1
								{
									OFFSET 22.299240 0.021149 -3.964172
									CHANNELS 3 Xrotation Yrotation Zrotation
									JOINT mixamorig:LeftHandRing2
									{
										OFFSET 6.321869 0.000000 0.000000
										CHANNELS 3 Xrotation Yrotation Zrotation
										JOINT mixamorig:LeftHandRing3
										{
											OFFSET 5.899796 0.000000 0.000000
											CHANNELS 3 Xrotation Yrotation Zrotation
											JOINT mixamorig:LeftHandRing4
											{
												OFFSET 6.517899 0.000000 0.000000
												CHANNELS 3 Xrotation Yrotation Zrotation
												End Site
												{
													OFFSET -1.637299 6.232208 0.980890
												}
											}
										}
									}
								}
								JOINT mixamorig:LeftHandPinky1
								{
									OFFSET 20.463791 -0.302338 -8.562233
									CHANNELS 3 Xrotation Yrotation Zrotation
									JOINT mixamorig:LeftHandPinky2
									{
										OFFSET 6.908646 0.000000 0.000000
										CHANNELS 3 Xrotation Yrotation Zrotation
										JOINT mixamorig:LeftHandPinky3
										{
											OFFSET 4.622849 0.000000 0.000000
											CHANNELS 3 Xrotation Yrotation Zrotation
											JOINT mixamorig:LeftHandPinky4
											{
												OFFSET 5.216080 0.000000 0.000000
												CHANNELS 3 Xrotation Yrotation Zrotation
												End Site
												{
													OFFSET -0.606308 5.116241 0.814926
												}
											}
										}
									}
								}
							}
						}
					}
				}
				JOINT mixamorig:RightShoulder
				{
					OFFSET -12.001300 18.284088 1.348900
					CHANNELS 3 Xrotation Yrotation Zrotation
					JOINT mixamorig:RightArm
					{
						OFFSET -25.308500 -0.751312 -5.164599
						CHANNELS 3 Xrotation Yrotation Zrotation
						JOINT mixamorig:RightForeArm
						{
							OFFSET -54.684429 0.000000 0.000000
							CHANNELS 3 Xrotation Yrotation Zrotation
							JOINT mixamorig:RightHand
							{
								OFFSET -55.150291 0.000000 0.000000
								CHANNELS 3 Xrotation Yrotation Zrotation
								JOINT mixamorig:RightHandMiddle1
								{
									OFFSET -23.317566 0.000000 0.000000
									CHANNELS 3 Xrotation Yrotation Zrotation
									JOINT mixamorig:RightHandMiddle2
									{
										OFFSET -6.378403 0.000000 0.000000
										CHANNELS 3 Xrotation Yrotation Zrotation
										JOINT mixamorig:RightHandMiddle3
										{
											OFFSET -6.148193 0.000000 0.000000
											CHANNELS 3 Xrotation Yrotation Zrotation
											JOINT mixamorig:RightHandMiddle4
											{
												OFFSET -6.583389 0.000000 0.000000
												CHANNELS 3 Xrotation Yrotation Zrotation
												End Site
												{
													OFFSET 1.171692 6.395905 1.029786
												}
											}
										}
									}
								}
								JOINT mixamorig:RightHandThumb1
								{
									OFFSET -7.190521 -3.860474 5.435846
									CHANNELS 3 Xrotation Yrotation Zrotation
									JOINT mixamorig:RightHandThumb2
									{
										OFFSET -6.567429 -3.791718 3.791708
										CHANNELS 3 Xrotation Yrotation Zrotation
										JOINT mixamorig:RightHandThumb3
										{
											OFFSET -6.062469 -3.500153 3.500166
											CHANNELS 3 Xrotation Yrotation Zrotation
											JOINT mixamorig:RightHandThumb4
											{
												OFFSET -4.792618 -2.767029 2.767022
												CHANNELS 3 Xrotation Yrotation Zrotation
												End Site
												{
													OFFSET -0.100327 6.053253 1.276754
												}
											}
										}
									}
								}
								JOINT mixamorig:RightHandIndex1
								{
									OFFSET -23.048981 -0.310791 4.992554
									CHANNELS 3 Xrotation Yrotation Zrotation
									JOINT mixamorig:RightHandIndex2
									{
										OFFSET -6.227539 0.000000 0.000000
										CHANNELS 3 Xrotation Yrotation Zrotation
										JOINT mixamorig:RightHandIndex3
										{
											OFFSET -6.095047 0.000000 0.000000
											CHANNELS 3 Xrotation Yrotation Zrotation
											JOINT mixamorig:RightHandIndex4
											{
												OFFSET -5.484772 0.000000 0.000000
												CHANNELS 3 Xrotation Yrotation Zrotation
												End Site
												{
													OFFSET 1.420593 5.237305 0.797056
												}
											}
										}
									}
								}
								JOINT mixamorig:RightHandRing1
								{
									OFFSET -22.246323 0.020569 -3.963762
									CHANNELS 3 Xrotation Yrotation Zrotation
									JOINT mixamorig:RightHandRing2
									{
										OFFSET -6.322128 0.000000 0.000000
										CHANNELS 3 Xrotation Yrotation Zrotation
										JOINT mixamorig:RightHandRing3
										{
											OFFSET -5.900024 0.000000 0.000000
											CHANNELS 3 Xrotation Yrotation Zrotation
											JOINT mixamorig:RightHandRing4
											{
												OFFSET -6.518356 0.000000 0.000000
												CHANNELS 3 Xrotation Yrotation Zrotation
												End Site
												{
													OFFSET 1.636398 6.232697 0.982186
												}
											}
										}
									}
								}
								JOINT mixamorig:RightHandPinky1
								{
									OFFSET -20.411011 -0.303314 -8.561701
									CHANNELS 3 Xrotation Yrotation Zrotation
									JOINT mixamorig:RightHandPinky2
									{
										OFFSET -6.907349 0.000000 0.000000
										CHANNELS 3 Xrotation Yrotation Zrotation
										JOINT mixamorig:RightHandPinky3
										{
											OFFSET -4.623840 0.000000 0.000000
											CHANNELS 3 Xrotation Yrotation Zrotation
											JOINT mixamorig:RightHandPinky4
											{
												OFFSET -5.218353 0.000000 0.000000
												CHANNELS 3 Xrotation Yrotation Zrotation
												End Site
												{
													OFFSET 0.602097 5.118835 0.816273
												}
											}
										}
									}
								}
							}
						}
					}
				}
			}
		}
	}
	JOINT mixamorig:LeftUpLeg
	{
		OFFSET 18.168400 -13.561905 -0.039000
		CHANNELS 3 Xrotation Yrotation Zrotation
		JOINT mixamorig:LeftLeg
		{
			OFFSET 0.577358 -80.825211 -3.695000
			CHANNELS 3 Xrotation Yrotation Zrotation
			JOINT mixamorig:LeftFoot
			{
				OFFSET -0.577356 -83.370262 -6.520700
				CHANNELS 3 Xrotation Yrotation Zrotation
				JOINT mixamorig:LeftToeBase
				{
					OFFSET 0.750401 -20.798306 25.135401
					CHANNELS 3 Xrotation Yrotation Zrotation
					JOINT mixamorig:LeftToe_End
					{
						OFFSET -0.000500 0.001200 19.917799
						CHANNELS 3 Xrotation Yrotation Zrotation
						End Site
						{
							OFFSET 0.000000 19.917805 0.000000
						}
					}
				}
			}
		}
	}
	JOINT mixamorig:RightUpLeg
	{
		OFFSET -18.162500 -13.585098 -0.041000
		CHANNELS 3 Xrotation Yrotation Zrotation
		JOINT mixamorig:RightLeg
		{
			OFFSET -0.595024 -80.945297 -3.631900
			CHANNELS 3 Xrotation Yrotation Zrotation
			JOINT mixamorig:RightFoot
			{
				OFFSET 0.595024 -83.218193 -6.561200
				CHANNELS 3 Xrotation Yrotation Zrotation
				JOINT mixamorig:RightToeBase
				{
					OFFSET -0.753601 -20.807106 25.115000
					CHANNELS 3 Xrotation Yrotation Zrotation
					JOINT mixamorig:RightToe_End
					{
						OFFSET 0.000299 0.001700 19.918200
						CHANNELS 3 Xrotation Yrotation Zrotation
						End Site
						{
							OFFSET 0.000000 19.918203 0.000000
						}
					}
				}
			}
		}
	}
}
MOTION
Frames: 4
Frame Time: 0.033333
-0.226759 185.413498 3.330036 18.521654 -22.786925 3.320067 14.441127 12.566563 -5.103590 0.181042 13.941491 -2.952712 -2.098746 4.385974 -5.171012 3.343962 -4.863137 2.163094 -16.591708 -6.260513 3.897355 0.000000 -0.000000 0.000000 0.000000 -0.000000 0.000000 0.000000 -0.000000 0.000000 -3.392349 1.810897 -2.440922 25.203144 10.897464 -70.255237 0.000006 -40.427166 0.000014 -10.545914 -12.286577 0.637027 5.038114 8.132867 -81.323845 5.066039 5.798338 -82.276288 7.804568 5.516387 -109.535375 -0.000000 0.000001 0.000001 6.643471 3.764615 -7.953432 18.001992 14.929298 -11.966299 -16.030259 74.912770 44.234381 0.000000 0.000002 -0.000003 4.858045 8.102814 -79.534213 4.736016 5.744187 -78.995256 8.507597 5.215096 -117.042668 -0.000000 0.000001 0.000001 5.414408 8.177435 -85.038369 5.118998 5.805253 -82.800054 5.085965 5.800984 -82.473530 -0.000001 0.000001 -0.000002 5.322360 8.168776 -84.132371 5.021749 5.792194 -81.837578 5.012671 5.790905 -81.747584 -0.000001 -0.000000 -0.000001 -26.366449 12.970967 1.888755 9.340891 0.428376 62.895312 0.000003 53.072636 -0.000023 -7.486688 14.124317 -4.573938 3.839602 -6.850393 79.239210 3.921321 -4.598800 80.899014 6.037868 -4.448220 107.263401 0.000001 0.000001 0.000001 5.246816 -1.604969 8.738499 18.405598 -16.769025 11.656281 -18.819907 -79.480937 -47.274823 0.000001 0.000002 0.000001 3.687892 -6.819155 77.332577 3.674981 -4.552615 77.812322 6.616479 -4.225795 114.903425 0.000003 -0.000000 -0.000002 4.103192 -6.892408 82.524559 3.939469 -4.601655 81.125292 3.939444 -4.601613 81.125271 -0.000001 -0.000000 0.000005 4.006747 -6.878803 81.326270 3.854576 -4.587645 80.065718 3.854571 -4.587630 80.065704 -0.000003 0.000000 -0.000002 -94.999810 3.605900 29.027559 107.376926 -5.600897 3.125860 22.100079 16.782116 -8.311846 5.063450 0.000002 0.000006 0.000001 0.000001 -0.000000 -2.785088 0.856772 -1.836778 20.130335 5.764004 -6.268608 -15.819889 9.897123 -5.522594 -28.648433 -0.000003 0.000001 0.000000 0.000000 -0.000000 
-0.673977 191.769516 55.798210 19.178476 -21.909304 4.008555 13.456906 14.564765 -7.053072 2.774113 14.413835 -3.876012 -2.014154 6.539326 -6.181334 4.176502 -3.355059 1.806282 -17.252581 -10.582759 4.386505 -0.000000 -0.000000 -0.000000 -0.000000 -0.000000 -0.000000 -0.000000 -0.000000 -0.000000 -3.997328 12.536104 -10.815860 35.663638 -0.328076 -45.135779 -0.000001 -26.620474 0.000000 -9.738953 -3.008770 2.927926 5.038105 8.132860 -81.323818 5.207139 5.815642 -83.670849 8.018386 5.436133 -111.775581 -0.000000 -0.000000 0.000000 6.643466 3.764612 -7.953436 18.001993 14.929291 -11.966317 -18.961257 76.679296 47.595815 0.000001 -0.000000 0.000000 4.858037 8.102801 -79.534179 4.856918 5.766284 -80.200955 8.696370 5.114756 -119.139318 0.000001 0.000000 -0.000002 5.414408 8.177440 -85.038355 5.290398 5.824247 -84.491708 5.224150 5.817489 -83.838612 -0.000000 0.000000 -0.000000 5.322359 8.168759 -84.132365 5.202833 5.815176 -83.628303 5.184615 5.813140 -83.448301 -0.000002 0.000001 0.000003 -25.768830 18.266146 3.332518 12.769221 24.306830 36.894325 -0.000001 62.314985 -0.000009 -15.765209 19.980211 -14.203434 3.848404 -6.852066 79.349429 3.921317 -4.598802 80.898987 6.037871 -4.448220 107.263401 0.000003 -0.000001 -0.000002 5.504114 -1.503785 9.196386 18.405630 -16.769069 11.656258 -18.819828 -79.480917 -47.274683 -0.000003 0.000001 -0.000002 3.684499 -6.818398 77.289724 3.674976 -4.552619 77.812322 6.616473 -4.225774 114.903425 0.000001 -0.000003 -0.000005 4.084325 -6.889914 82.290379 3.939441 -4.601663 81.125271 3.939458 -4.601623 81.125265 0.000000 -0.000000 0.000003 3.963317 -6.872031 80.784930 3.854563 -4.587628 80.065718 3.854577 -4.587623 80.065731 -0.000002 0.000001 0.000000 -99.338565 -1.331267 28.234960 85.600514 -2.946720 -5.392636 31.195263 12.809922 -6.734201 3.126076 -0.000003 0.000003 -0.000004 0.000001 0.000000 9.491884 1.873749 -4.776988 9.186040 9.641300 -6.472391 24.207403 10.923542 -17.758640 -11.459205 -0.663757 6.015480 0.000004 0.000000 -0.000000 
-0.029160 194.022598 105.624496 18.948439 -19.022886 3.067573 9.686234 14.074692 -5.937085 4.952122 12.296290 -4.237352 -1.558720 7.667835 -6.137098 4.434613 -2.602637 1.859535 -17.337848 -10.248771 4.831908 0.000002 0.000000 0.000000 0.000002 0.000000 0.000000 0.000002 0.000000 0.000000 -3.510456 18.441147 -15.208939 35.834198 -3.813025 -31.392130 -0.000005 -23.259743 0.000000 -3.330769 2.222293 4.199748 5.038104 8.132859 -81.323798 5.324896 5.827441 -84.831796 8.193853 5.363053 -113.640052 0.000004 -0.000000 0.000002 6.643470 3.764604 -7.953435 18.001978 14.929318 -11.966269 -22.100978 78.111717 51.092725 0.000003 -0.000000 -0.000002 4.858043 8.102821 -79.534165 4.957939 5.782719 -81.204761 8.850590 5.026018 -120.884171 -0.000002 0.000000 -0.000000 5.414406 8.177433 -85.038341 5.433467 5.836196 -85.900024 5.339454 5.828715 -84.975073 -0.000001 -0.000000 -0.000003 5.322354 8.168770 -84.132351 5.354091 5.829990 -85.119115 5.328209 5.827747 -84.864165 -0.000003 0.000002 -0.000000 -24.324143 20.036561 3.124025 1.730530 23.504279 38.927092 -0.000035 69.988737 0.000031 -3.058221 17.111087 -8.757402 3.863901 -6.854905 79.543406 3.921305 -4.598799 80.899021 6.037867 -4.448232 107.263401 0.000000 -0.000006 -0.000001 5.730906 -1.430902 9.590036 18.405618 -16.769023 11.656265 -18.819855 -79.480937 -47.274765 0.000002 -0.000001 0.000001 3.689726 -6.819562 77.355854 3.674993 -4.552622 77.812329 6.616480 -4.225778 114.903425 0.000001 0.000002 -0.000005 4.077586 -6.889001 82.206880 3.939455 -4.601642 81.125285 3.939449 -4.601632 81.125258 -0.000000 -0.000003 -0.000005 3.936319 -6.867589 80.448365 3.854589 -4.587638 80.065745 3.854580 -4.587613 80.065704 0.000000 0.000002 0.000002 -88.817560 -3.720001 22.833131 65.341592 2.483115 -9.854819 11.421533 11.356600 -12.303632 1.681533 -0.000002 -0.000004 -0.000000 0.000001 0.000001 1.751925 2.626900 -5.164034 37.384433 10.207918 -6.218411 21.367825 11.075041 -23.749000 11.418388 0.000007 -0.000004 -0.000000 0.000001 -0.000002 
1.016932 190.086288 147.198639 18.406153 -14.654430 1.255594 6.373673 12.287013 -3.994383 5.755884 8.732685 -3.891750 -1.807418 6.651491 -4.867615 4.447281 -2.093506 2.117544 -17.223362 -7.611756 5.330685 -0.000001 -0.000000 -0.000000 -0.000001 -0.000000 -0.000000 -0.000001 -0.000000 -0.000000 -2.739105 18.372299 -15.002654 23.514014 -7.209034 -32.916495 -0.000004 -24.933949 0.000003 8.081328 -2.219781 4.603936 5.038110 8.132863 -81.323798 5.441654 5.836770 -85.980703 8.365023 5.285147 -115.484606 -0.000001 0.000001 0.000001 6.643468 3.764612 -7.953409 18.001976 14.929305 -11.966291 -26.078190 79.480138 55.422627 0.000001 0.000001 0.000000 4.858042 8.102812 -79.534179 5.058149 5.797259 -82.198144 9.000446 4.933644 -122.610351 -0.000000 -0.000001 0.000001 5.414400 8.177426 -85.038341 5.575299 5.844600 -87.293724 5.453756 5.837588 -86.099719 -0.000001 0.000001 -0.000001 5.322352 8.168765 -84.132351 5.504089 5.840800 -86.594450 5.470609 5.838741 -86.265323 0.000002 -0.000001 0.000001 -22.783462 17.710803 3.283473 -6.742225 10.318909 47.687503 0.000008 75.006952 0.000016 10.852869 13.575176 1.361816 3.875851 -6.857099 79.692865 3.921326 -4.598806 80.899008 6.037861 -4.448202 107.263422 0.000000 0.000001 0.000000 5.944105 -1.354592 9.962746 18.405620 -16.769047 11.656271 -18.819910 -79.480931 -47.274789 -0.000001 0.000001 0.000001 3.691856 -6.820052 77.382724 3.674998 -4.552611 77.812281 6.616476 -4.225783 114.903425 0.000002 0.000003 0.000002 4.067884 -6.887697 82.086525 3.939475 -4.601662 81.125285 3.939454 -4.601623 81.125265 0.000002 -0.000003 -0.000001 3.907138 -6.862627 80.084050 3.854587 -4.587641 80.065738 3.854566 -4.587607 80.065731 0.000003 -0.000001 -0.000001 -70.211285 -5.638933 14.906695 37.976917 8.642175 -9.457143 -6.664374 7.662486 -12.664295 1.864639 0.000000 -0.000001 0.000003 -0.000000 -0.000000 -10.340841 2.618871 -3.714884 71.327556 10.432266 -5.413890 14.641062 10.268998 -27.997584 17.617821 -0.000001 0.000008 0.000001 0.000001 0.000001 
